<svg width="300" height="160" viewBox="0 0 300 160 " fill="none" xmlns="http://www.w3.org/2000/svg">
<g filter="url(#filter0_b_46_349)">
<mask id="mask0_46_349" style="mask-type:none" maskUnits="userSpaceOnUse" x="0" y="0" width="300" height="160">
<rect width="300" height="160" rx="15" fill="#E76201"/>
</mask>
<g mask="url(#mask0_46_349)">
<rect width="300" height="160" rx="15" fill="#E76201"/>
<ellipse cx="170" cy="143" rx="65" ry="62" fill="#FCBB8C"/>
<path d="M-15.9909 48.6862C-29.4909 156.686 96.5092 156.114 120.509 152.686C144.509 149.258 226.009 115.687 222.009 75.6862C218.009 35.6856 169.509 41.8146 152.509 46.1868C135.509 50.5589 118.509 69.1869 126.509 89.6869C134.509 110.187 288.509 226.686 288.509 226.686" stroke="#FF9A50" stroke-width="20"/>
<path d="M120.532 126V125.062C121.363 124.259 122.077 123.545 122.674 122.92C123.281 122.285 123.747 121.711 124.074 121.198C124.401 120.675 124.564 120.19 124.564 119.742C124.564 119.275 124.438 118.902 124.186 118.622C123.934 118.342 123.57 118.202 123.094 118.202C122.749 118.202 122.431 118.3 122.142 118.496C121.862 118.692 121.601 118.925 121.358 119.196L120.462 118.3C120.873 117.861 121.297 117.525 121.736 117.292C122.175 117.049 122.697 116.928 123.304 116.928C124.163 116.928 124.844 117.175 125.348 117.67C125.861 118.165 126.118 118.827 126.118 119.658C126.118 120.181 125.969 120.717 125.67 121.268C125.381 121.809 124.989 122.365 124.494 122.934C124.009 123.503 123.472 124.101 122.884 124.726C123.117 124.707 123.369 124.689 123.64 124.67C123.911 124.642 124.153 124.628 124.368 124.628H126.552V126H120.532ZM130.538 126.168C129.819 126.168 129.212 126.047 128.718 125.804C128.232 125.552 127.831 125.253 127.514 124.908L128.284 123.872C128.554 124.143 128.862 124.376 129.208 124.572C129.553 124.759 129.95 124.852 130.398 124.852C130.883 124.852 131.275 124.735 131.574 124.502C131.882 124.259 132.036 123.928 132.036 123.508C132.036 123.2 131.956 122.934 131.798 122.71C131.648 122.477 131.382 122.299 131 122.178C130.626 122.057 130.099 121.996 129.418 121.996V120.82C130.295 120.82 130.902 120.685 131.238 120.414C131.574 120.143 131.742 119.803 131.742 119.392C131.742 119.019 131.625 118.729 131.392 118.524C131.158 118.309 130.836 118.202 130.426 118.202C130.08 118.202 129.763 118.281 129.474 118.44C129.184 118.589 128.904 118.79 128.634 119.042L127.808 118.048C128.19 117.712 128.596 117.441 129.026 117.236C129.464 117.031 129.95 116.928 130.482 116.928C131.34 116.928 132.036 117.133 132.568 117.544C133.1 117.945 133.366 118.524 133.366 119.28C133.366 119.775 133.226 120.195 132.946 120.54C132.675 120.876 132.297 121.137 131.812 121.324V121.38C132.334 121.52 132.773 121.777 133.128 122.15C133.482 122.523 133.66 123.004 133.66 123.592C133.66 124.133 133.515 124.595 133.226 124.978C132.946 125.361 132.568 125.655 132.092 125.86C131.625 126.065 131.107 126.168 130.538 126.168ZM137.729 126.168C137.011 126.168 136.404 126.047 135.909 125.804C135.424 125.552 135.018 125.263 134.691 124.936L135.433 123.9C135.704 124.152 136.007 124.376 136.343 124.572C136.679 124.759 137.071 124.852 137.519 124.852C138.014 124.852 138.425 124.703 138.751 124.404C139.078 124.105 139.241 123.685 139.241 123.144C139.241 122.612 139.092 122.201 138.793 121.912C138.495 121.623 138.098 121.478 137.603 121.478C137.314 121.478 137.071 121.52 136.875 121.604C136.679 121.679 136.446 121.805 136.175 121.982L135.405 121.492L135.671 117.096H140.431V118.454H137.071L136.889 120.61C137.076 120.517 137.258 120.447 137.435 120.4C137.622 120.344 137.832 120.316 138.065 120.316C138.579 120.316 139.045 120.414 139.465 120.61C139.885 120.806 140.221 121.109 140.473 121.52C140.735 121.931 140.865 122.458 140.865 123.102C140.865 123.746 140.716 124.297 140.417 124.754C140.128 125.211 139.745 125.561 139.269 125.804C138.793 126.047 138.28 126.168 137.729 126.168ZM145.117 126.168C144.193 126.168 143.456 125.767 142.905 124.964C142.364 124.161 142.093 123.009 142.093 121.506C142.093 120.003 142.364 118.865 142.905 118.09C143.456 117.315 144.193 116.928 145.117 116.928C146.041 116.928 146.774 117.315 147.315 118.09C147.866 118.865 148.141 120.003 148.141 121.506C148.141 123.009 147.866 124.161 147.315 124.964C146.774 125.767 146.041 126.168 145.117 126.168ZM145.117 124.908C145.407 124.908 145.663 124.801 145.887 124.586C146.111 124.362 146.284 124.003 146.405 123.508C146.536 123.013 146.601 122.346 146.601 121.506C146.601 120.666 146.536 120.003 146.405 119.518C146.284 119.033 146.111 118.692 145.887 118.496C145.663 118.291 145.407 118.188 145.117 118.188C144.837 118.188 144.585 118.291 144.361 118.496C144.137 118.692 143.96 119.033 143.829 119.518C143.699 120.003 143.633 120.666 143.633 121.506C143.633 122.346 143.699 123.013 143.829 123.508C143.96 124.003 144.137 124.362 144.361 124.586C144.585 124.801 144.837 124.908 145.117 124.908Z" fill="white"/>
<path d="M237.584 126.168C236.66 126.168 235.923 125.767 235.372 124.964C234.831 124.161 234.56 123.009 234.56 121.506C234.56 120.003 234.831 118.865 235.372 118.09C235.923 117.315 236.66 116.928 237.584 116.928C238.508 116.928 239.241 117.315 239.782 118.09C240.333 118.865 240.608 120.003 240.608 121.506C240.608 123.009 240.333 124.161 239.782 124.964C239.241 125.767 238.508 126.168 237.584 126.168ZM237.584 124.908C237.873 124.908 238.13 124.801 238.354 124.586C238.578 124.362 238.751 124.003 238.872 123.508C239.003 123.013 239.068 122.346 239.068 121.506C239.068 120.666 239.003 120.003 238.872 119.518C238.751 119.033 238.578 118.692 238.354 118.496C238.13 118.291 237.873 118.188 237.584 118.188C237.304 118.188 237.052 118.291 236.828 118.496C236.604 118.692 236.427 119.033 236.296 119.518C236.165 120.003 236.1 120.666 236.1 121.506C236.1 122.346 236.165 123.013 236.296 123.508C236.427 124.003 236.604 124.362 236.828 124.586C237.052 124.801 237.304 124.908 237.584 124.908ZM243.53 126C243.586 124.945 243.698 124.003 243.866 123.172C244.034 122.332 244.29 121.534 244.636 120.778C244.981 120.022 245.438 119.247 246.008 118.454H241.794V117.096H247.772V118.076C247.249 118.72 246.824 119.336 246.498 119.924C246.18 120.512 245.928 121.109 245.742 121.716C245.564 122.313 245.434 122.962 245.35 123.662C245.266 124.353 245.205 125.132 245.168 126H243.53ZM248.523 128.24L251.785 116.06H252.877L249.615 128.24H248.523ZM253.7 126V125.062C254.531 124.259 255.245 123.545 255.842 122.92C256.449 122.285 256.915 121.711 257.242 121.198C257.569 120.675 257.732 120.19 257.732 119.742C257.732 119.275 257.606 118.902 257.354 118.622C257.102 118.342 256.738 118.202 256.262 118.202C255.917 118.202 255.599 118.3 255.31 118.496C255.03 118.692 254.769 118.925 254.526 119.196L253.63 118.3C254.041 117.861 254.465 117.525 254.904 117.292C255.343 117.049 255.865 116.928 256.472 116.928C257.331 116.928 258.012 117.175 258.516 117.67C259.029 118.165 259.286 118.827 259.286 119.658C259.286 120.181 259.137 120.717 258.838 121.268C258.549 121.809 258.157 122.365 257.662 122.934C257.177 123.503 256.64 124.101 256.052 124.726C256.285 124.707 256.537 124.689 256.808 124.67C257.079 124.642 257.321 124.628 257.536 124.628H259.72V126H253.7ZM263.944 126.168C263.365 126.168 262.847 126.065 262.39 125.86C261.932 125.645 261.573 125.356 261.312 124.992C261.05 124.628 260.92 124.203 260.92 123.718C260.92 123.167 261.083 122.705 261.41 122.332C261.736 121.959 262.11 121.66 262.53 121.436V121.38C262.184 121.137 261.89 120.848 261.648 120.512C261.414 120.167 261.298 119.761 261.298 119.294C261.298 118.809 261.414 118.393 261.648 118.048C261.881 117.693 262.198 117.418 262.6 117.222C263.01 117.026 263.472 116.928 263.986 116.928C264.788 116.928 265.423 117.152 265.89 117.6C266.366 118.039 266.604 118.617 266.604 119.336C266.604 119.775 266.478 120.171 266.226 120.526C265.974 120.881 265.703 121.165 265.414 121.38V121.436C265.824 121.669 266.184 121.963 266.492 122.318C266.8 122.673 266.954 123.149 266.954 123.746C266.954 124.203 266.828 124.614 266.576 124.978C266.324 125.342 265.974 125.631 265.526 125.846C265.078 126.061 264.55 126.168 263.944 126.168ZM264.532 120.974C264.774 120.731 264.956 120.484 265.078 120.232C265.208 119.98 265.274 119.714 265.274 119.434C265.274 119.042 265.157 118.72 264.924 118.468C264.69 118.207 264.368 118.076 263.958 118.076C263.612 118.076 263.323 118.183 263.09 118.398C262.856 118.613 262.74 118.911 262.74 119.294C262.74 119.593 262.819 119.845 262.978 120.05C263.136 120.246 263.351 120.419 263.622 120.568C263.902 120.708 264.205 120.843 264.532 120.974ZM263.972 125.02C264.401 125.02 264.751 124.903 265.022 124.67C265.302 124.427 265.442 124.101 265.442 123.69C265.442 123.363 265.344 123.097 265.148 122.892C264.961 122.687 264.704 122.509 264.378 122.36C264.06 122.201 263.701 122.043 263.3 121.884C263.02 122.089 262.786 122.332 262.6 122.612C262.422 122.892 262.334 123.205 262.334 123.55C262.334 123.989 262.492 124.343 262.81 124.614C263.127 124.885 263.514 125.02 263.972 125.02Z" fill="white"/>
<path d="M28 121C28 122.105 27.1046 123 26 123C24.8954 123 24 122.105 24 121C24 119.895 24.8954 119 26 119C27.1046 119 28 119.895 28 121Z" fill="white"/>
<path d="M34 121C34 122.105 33.1046 123 32 123C30.8954 123 30 122.105 30 121C30 119.895 30.8954 119 32 119C33.1046 119 34 119.895 34 121Z" fill="white"/>
<path d="M40 121C40 122.105 39.1046 123 38 123C36.8954 123 36 122.105 36 121C36 119.895 36.8954 119 38 119C39.1046 119 40 119.895 40 121Z" fill="white"/>
<path d="M46 121C46 122.105 45.1046 123 44 123C42.8954 123 42 122.105 42 121C42 119.895 42.8954 119 44 119C45.1046 119 46 119.895 46 121Z" fill="white"/>
<path d="M62 121C62 122.105 61.1046 123 60 123C58.8954 123 58 122.105 58 121C58 119.895 58.8954 119 60 119C61.1046 119 62 119.895 62 121Z" fill="white"/>
<path d="M68 121C68 122.105 67.1046 123 66 123C64.8954 123 64 122.105 64 121C64 119.895 64.8954 119 66 119C67.1046 119 68 119.895 68 121Z" fill="white"/>
<path d="M74 121C74 122.105 73.1046 123 72 123C70.8954 123 70 122.105 70 121C70 119.895 70.8954 119 72 119C73.1046 119 74 119.895 74 121Z" fill="white"/>
<path d="M80 121C80 122.105 79.1046 123 78 123C76.8954 123 76 122.105 76 121C76 119.895 76.8954 119 78 119C79.1046 119 80 119.895 80 121Z" fill="white"/>
<path d="M94 121C94 122.105 93.1046 123 92 123C90.8954 123 90 122.105 90 121C90 119.895 90.8954 119 92 119C93.1046 119 94 119.895 94 121Z" fill="white"/>
<path d="M100 121C100 122.105 99.1046 123 98 123C96.8954 123 96 122.105 96 121C96 119.895 96.8954 119 98 119C99.1046 119 100 119.895 100 121Z" fill="white"/>
<path d="M106 121C106 122.105 105.105 123 104 123C102.895 123 102 122.105 102 121C102 119.895 102.895 119 104 119C105.105 119 106 119.895 106 121Z" fill="white"/>
<path d="M112 121C112 122.105 111.105 123 110 123C108.895 123 108 122.105 108 121C108 119.895 108.895 119 110 119C111.105 119 112 119.895 112 121Z" fill="white"/>
<path d="M24.996 39V31.152H26.388V34.308H29.568V31.152H30.96V39H29.568V35.52H26.388V39H24.996ZM34.261 39.144C33.749 39.144 33.329 38.984 33.001 38.664C32.681 38.344 32.521 37.928 32.521 37.416C32.521 36.784 32.797 36.296 33.349 35.952C33.901 35.6 34.781 35.36 35.989 35.232C35.981 34.92 35.897 34.652 35.737 34.428C35.585 34.196 35.309 34.08 34.909 34.08C34.621 34.08 34.337 34.136 34.057 34.248C33.785 34.36 33.517 34.496 33.253 34.656L32.749 33.732C33.077 33.524 33.445 33.344 33.853 33.192C34.269 33.04 34.709 32.964 35.173 32.964C35.909 32.964 36.457 33.184 36.817 33.624C37.185 34.056 37.369 34.684 37.369 35.508V39H36.229L36.133 38.352H36.085C35.821 38.576 35.537 38.764 35.233 38.916C34.937 39.068 34.613 39.144 34.261 39.144ZM34.705 38.064C34.945 38.064 35.161 38.008 35.353 37.896C35.553 37.776 35.765 37.616 35.989 37.416V36.096C35.189 36.2 34.633 36.356 34.321 36.564C34.009 36.764 33.853 37.012 33.853 37.308C33.853 37.572 33.933 37.764 34.093 37.884C34.253 38.004 34.457 38.064 34.705 38.064ZM39.0205 39V33.108H40.1605L40.2565 33.9H40.3045C40.5685 33.644 40.8565 33.424 41.1685 33.24C41.4805 33.056 41.8365 32.964 42.2365 32.964C42.8685 32.964 43.3285 33.168 43.6165 33.576C43.9045 33.984 44.0485 34.56 44.0485 35.304V39H42.6685V35.484C42.6685 34.996 42.5965 34.652 42.4525 34.452C42.3085 34.252 42.0725 34.152 41.7445 34.152C41.4885 34.152 41.2605 34.216 41.0605 34.344C40.8685 34.464 40.6485 34.644 40.4005 34.884V39H39.0205ZM47.7994 39.144C47.0634 39.144 46.4754 38.872 46.0354 38.328C45.5954 37.784 45.3754 37.028 45.3754 36.06C45.3754 35.42 45.4914 34.868 45.7234 34.404C45.9634 33.94 46.2754 33.584 46.6594 33.336C47.0434 33.088 47.4474 32.964 47.8714 32.964C48.2074 32.964 48.4914 33.024 48.7234 33.144C48.9634 33.256 49.1954 33.412 49.4194 33.612L49.3714 32.664V30.528H50.7514V39H49.6114L49.5154 38.364H49.4674C49.2514 38.58 48.9994 38.764 48.7114 38.916C48.4234 39.068 48.1194 39.144 47.7994 39.144ZM48.1354 38.004C48.5754 38.004 48.9874 37.784 49.3714 37.344V34.596C49.1714 34.412 48.9714 34.284 48.7714 34.212C48.5714 34.14 48.3714 34.104 48.1714 34.104C47.7954 34.104 47.4714 34.276 47.1994 34.62C46.9354 34.956 46.8034 35.432 46.8034 36.048C46.8034 36.68 46.9194 37.164 47.1514 37.5C47.3834 37.836 47.7114 38.004 48.1354 38.004ZM55.0288 39.144C54.4848 39.144 53.9928 39.024 53.5528 38.784C53.1128 38.536 52.7648 38.184 52.5088 37.728C52.2528 37.264 52.1248 36.708 52.1248 36.06C52.1248 35.42 52.2528 34.868 52.5088 34.404C52.7728 33.94 53.1128 33.584 53.5288 33.336C53.9448 33.088 54.3808 32.964 54.8368 32.964C55.3728 32.964 55.8208 33.084 56.1808 33.324C56.5408 33.556 56.8128 33.884 56.9968 34.308C57.1808 34.724 57.2728 35.208 57.2728 35.76C57.2728 36.048 57.2528 36.272 57.2128 36.432H53.4688C53.5328 36.952 53.7208 37.356 54.0328 37.644C54.3448 37.932 54.7368 38.076 55.2088 38.076C55.4648 38.076 55.7008 38.04 55.9168 37.968C56.1408 37.888 56.3608 37.78 56.5768 37.644L57.0448 38.508C56.7648 38.692 56.4528 38.844 56.1088 38.964C55.7648 39.084 55.4048 39.144 55.0288 39.144ZM53.4568 35.496H56.0728C56.0728 35.04 55.9728 34.684 55.7728 34.428C55.5728 34.164 55.2728 34.032 54.8728 34.032C54.5288 34.032 54.2208 34.16 53.9488 34.416C53.6848 34.664 53.5208 35.024 53.4568 35.496ZM59.9348 39.144C59.4468 39.144 59.0988 38.996 58.8908 38.7C58.6908 38.404 58.5908 38 58.5908 37.488V30.528H59.9708V37.56C59.9708 37.728 60.0028 37.848 60.0668 37.92C60.1308 37.984 60.1988 38.016 60.2708 38.016C60.3028 38.016 60.3308 38.016 60.3548 38.016C60.3868 38.008 60.4308 38 60.4868 37.992L60.6668 39.024C60.5868 39.056 60.4828 39.084 60.3548 39.108C60.2348 39.132 60.0948 39.144 59.9348 39.144ZM63.4927 39.144C63.0927 39.144 62.6927 39.068 62.2927 38.916C61.8927 38.756 61.5487 38.56 61.2607 38.328L61.9087 37.44C62.1727 37.64 62.4367 37.8 62.7007 37.92C62.9647 38.04 63.2447 38.1 63.5407 38.1C63.8607 38.1 64.0967 38.032 64.2487 37.896C64.4007 37.76 64.4767 37.592 64.4767 37.392C64.4767 37.224 64.4127 37.088 64.2847 36.984C64.1647 36.872 64.0087 36.776 63.8167 36.696C63.6247 36.608 63.4247 36.524 63.2167 36.444C62.9607 36.348 62.7047 36.232 62.4487 36.096C62.2007 35.952 61.9967 35.772 61.8367 35.556C61.6767 35.332 61.5967 35.056 61.5967 34.728C61.5967 34.208 61.7887 33.784 62.1727 33.456C62.5567 33.128 63.0767 32.964 63.7327 32.964C64.1487 32.964 64.5207 33.036 64.8487 33.18C65.1767 33.324 65.4607 33.488 65.7007 33.672L65.0647 34.512C64.8567 34.36 64.6447 34.24 64.4287 34.152C64.2207 34.056 64.0007 34.008 63.7687 34.008C63.4727 34.008 63.2527 34.072 63.1087 34.2C62.9647 34.32 62.8927 34.472 62.8927 34.656C62.8927 34.888 63.0127 35.064 63.2527 35.184C63.4927 35.304 63.7727 35.42 64.0927 35.532C64.3647 35.628 64.6287 35.748 64.8847 35.892C65.1407 36.028 65.3527 36.208 65.5207 36.432C65.6967 36.656 65.7847 36.952 65.7847 37.32C65.7847 37.824 65.5887 38.256 65.1967 38.616C64.8047 38.968 64.2367 39.144 63.4927 39.144ZM69.8726 39.144C69.3126 39.144 68.7766 38.888 68.2646 38.376H68.2286L68.1086 39H67.0166V30.528H68.3966V32.712L68.3606 33.696C68.6086 33.48 68.8806 33.304 69.1766 33.168C69.4726 33.032 69.7686 32.964 70.0646 32.964C70.8006 32.964 71.3726 33.236 71.7806 33.78C72.1886 34.324 72.3926 35.048 72.3926 35.952C72.3926 36.624 72.2726 37.2 72.0326 37.68C71.7926 38.152 71.4806 38.516 71.0966 38.772C70.7206 39.02 70.3126 39.144 69.8726 39.144ZM69.5846 38.004C69.9766 38.004 70.3046 37.832 70.5686 37.488C70.8326 37.144 70.9646 36.64 70.9646 35.976C70.9646 35.384 70.8646 34.924 70.6646 34.596C70.4646 34.268 70.1406 34.104 69.6926 34.104C69.2766 34.104 68.8446 34.324 68.3966 34.764V37.512C68.6046 37.688 68.8086 37.816 69.0086 37.896C69.2166 37.968 69.4086 38.004 69.5846 38.004ZM75.0657 39.144C74.5537 39.144 74.1337 38.984 73.8057 38.664C73.4857 38.344 73.3257 37.928 73.3257 37.416C73.3257 36.784 73.6017 36.296 74.1537 35.952C74.7057 35.6 75.5857 35.36 76.7937 35.232C76.7857 34.92 76.7017 34.652 76.5417 34.428C76.3897 34.196 76.1137 34.08 75.7137 34.08C75.4257 34.08 75.1417 34.136 74.8617 34.248C74.5897 34.36 74.3217 34.496 74.0577 34.656L73.5537 33.732C73.8817 33.524 74.2497 33.344 74.6577 33.192C75.0737 33.04 75.5137 32.964 75.9777 32.964C76.7137 32.964 77.2617 33.184 77.6217 33.624C77.9897 34.056 78.1737 34.684 78.1737 35.508V39H77.0337L76.9377 38.352H76.8897C76.6257 38.576 76.3417 38.764 76.0377 38.916C75.7417 39.068 75.4177 39.144 75.0657 39.144ZM75.5097 38.064C75.7497 38.064 75.9657 38.008 76.1577 37.896C76.3577 37.776 76.5697 37.616 76.7937 37.416V36.096C75.9937 36.2 75.4377 36.356 75.1257 36.564C74.8137 36.764 74.6577 37.012 74.6577 37.308C74.6577 37.572 74.7377 37.764 74.8977 37.884C75.0577 38.004 75.2617 38.064 75.5097 38.064ZM79.8252 39V33.108H80.9652L81.0612 33.9H81.1092C81.3732 33.644 81.6612 33.424 81.9732 33.24C82.2852 33.056 82.6412 32.964 83.0412 32.964C83.6732 32.964 84.1332 33.168 84.4212 33.576C84.7092 33.984 84.8532 34.56 84.8532 35.304V39H83.4732V35.484C83.4732 34.996 83.4012 34.652 83.2572 34.452C83.1132 34.252 82.8772 34.152 82.5492 34.152C82.2932 34.152 82.0652 34.216 81.8652 34.344C81.6732 34.464 81.4532 34.644 81.2052 34.884V39H79.8252ZM86.5401 39V30.528H87.8961V35.82H87.9321L90.1161 33.108H91.6281L89.6121 35.508L91.8321 39H90.3321L88.8201 36.444L87.8961 37.5V39H86.5401ZM95.0483 39.144C94.5043 39.144 94.0123 39.024 93.5723 38.784C93.1323 38.536 92.7843 38.184 92.5283 37.728C92.2723 37.264 92.1443 36.708 92.1443 36.06C92.1443 35.42 92.2723 34.868 92.5283 34.404C92.7923 33.94 93.1323 33.584 93.5483 33.336C93.9643 33.088 94.4003 32.964 94.8563 32.964C95.3923 32.964 95.8403 33.084 96.2003 33.324C96.5603 33.556 96.8323 33.884 97.0163 34.308C97.2003 34.724 97.2923 35.208 97.2923 35.76C97.2923 36.048 97.2723 36.272 97.2323 36.432H93.4883C93.5523 36.952 93.7403 37.356 94.0523 37.644C94.3643 37.932 94.7563 38.076 95.2283 38.076C95.4843 38.076 95.7203 38.04 95.9363 37.968C96.1603 37.888 96.3803 37.78 96.5963 37.644L97.0643 38.508C96.7843 38.692 96.4723 38.844 96.1283 38.964C95.7843 39.084 95.4243 39.144 95.0483 39.144ZM93.4763 35.496H96.0923C96.0923 35.04 95.9923 34.684 95.7923 34.428C95.5923 34.164 95.2923 34.032 94.8923 34.032C94.5483 34.032 94.2403 34.16 93.9683 34.416C93.7043 34.664 93.5403 35.024 93.4763 35.496ZM98.6104 39V33.108H99.7504L99.8464 33.9H99.8944C100.158 33.644 100.446 33.424 100.758 33.24C101.07 33.056 101.426 32.964 101.826 32.964C102.458 32.964 102.918 33.168 103.206 33.576C103.494 33.984 103.638 34.56 103.638 35.304V39H102.258V35.484C102.258 34.996 102.186 34.652 102.042 34.452C101.898 34.252 101.662 34.152 101.334 34.152C101.078 34.152 100.85 34.216 100.65 34.344C100.458 34.464 100.238 34.644 99.9904 34.884V39H98.6104Z" fill="white"/>
<path d="M268 37C268 42.5228 263.523 47 258 47C252.477 47 248 42.5228 248 37C248 31.4772 252.477 27 258 27C263.523 27 268 31.4772 268 37Z" fill="#373B58"/>
<path d="M253 37C253 42.5228 248.523 47 243 47C237.477 47 233 42.5228 233 37C233 31.4772 237.477 27 243 27C248.523 27 253 31.4772 253 37Z" fill="#1E2138"/>
<path d="M31.71 72.36C30.47 72.36 29.36 72.14 28.38 71.7C27.4 71.24 26.63 70.62 26.07 69.84C25.51 69.06 25.23 68.15 25.23 67.11C25.23 65.93 25.58 64.94 26.28 64.14C26.98 63.34 27.78 62.7 28.68 62.22V62.1C27.94 61.58 27.31 60.96 26.79 60.24C26.29 59.5 26.04 58.63 26.04 57.63C26.04 56.59 26.29 55.7 26.79 54.96C27.29 54.2 27.97 53.61 28.83 53.19C29.71 52.77 30.7 52.56 31.8 52.56C33.52 52.56 34.88 53.04 35.88 54C36.9 54.94 37.41 56.18 37.41 57.72C37.41 58.66 37.14 59.51 36.6 60.27C36.06 61.03 35.48 61.64 34.86 62.1V62.22C35.74 62.72 36.51 63.35 37.17 64.11C37.83 64.87 38.16 65.89 38.16 67.17C38.16 68.15 37.89 69.03 37.35 69.81C36.81 70.59 36.06 71.21 35.1 71.67C34.14 72.13 33.01 72.36 31.71 72.36ZM32.97 61.23C33.49 60.71 33.88 60.18 34.14 59.64C34.42 59.1 34.56 58.53 34.56 57.93C34.56 57.09 34.31 56.4 33.81 55.86C33.31 55.3 32.62 55.02 31.74 55.02C31 55.02 30.38 55.25 29.88 55.71C29.38 56.17 29.13 56.81 29.13 57.63C29.13 58.27 29.3 58.81 29.64 59.25C29.98 59.67 30.44 60.04 31.02 60.36C31.62 60.66 32.27 60.95 32.97 61.23ZM31.77 69.9C32.69 69.9 33.44 69.65 34.02 69.15C34.62 68.63 34.92 67.93 34.92 67.05C34.92 66.35 34.71 65.78 34.29 65.34C33.89 64.9 33.34 64.52 32.64 64.2C31.96 63.86 31.19 63.52 30.33 63.18C29.73 63.62 29.23 64.14 28.83 64.74C28.45 65.34 28.26 66.01 28.26 66.75C28.26 67.69 28.6 68.45 29.28 69.03C29.96 69.61 30.79 69.9 31.77 69.9ZM41.5409 77.46L40.7909 75.57C41.7709 75.19 42.5209 74.67 43.0409 74.01C43.5809 73.37 43.8409 72.68 43.8209 71.94C43.7809 71.94 43.7309 71.94 43.6709 71.94C43.6309 71.94 43.5909 71.94 43.5509 71.94C42.9709 71.94 42.4509 71.76 41.9909 71.4C41.5509 71.02 41.3309 70.49 41.3309 69.81C41.3309 69.17 41.5609 68.66 42.0209 68.28C42.4809 67.88 43.0209 67.68 43.6409 67.68C44.4609 67.68 45.0909 67.99 45.5309 68.61C45.9909 69.23 46.2209 70.1 46.2209 71.22C46.2209 72.68 45.8109 73.95 44.9909 75.03C44.1709 76.13 43.0209 76.94 41.5409 77.46ZM51.9326 58.8C51.9326 59.92 52.1926 60.77 52.7126 61.35C53.2526 61.93 54.0026 62.22 54.9626 62.22C55.5226 62.22 56.1026 62.05 56.7026 61.71C57.3226 61.35 57.8826 60.78 58.3826 60C58.2026 58.32 57.7926 57.1 57.1526 56.34C56.5126 55.58 55.7226 55.2 54.7826 55.2C54.0026 55.2 53.3326 55.51 52.7726 56.13C52.2126 56.75 51.9326 57.64 51.9326 58.8ZM54.1526 72.36C53.0126 72.36 52.0226 72.15 51.1826 71.73C50.3426 71.31 49.6326 70.8 49.0526 70.2L50.9126 68.1C51.2726 68.52 51.7226 68.87 52.2626 69.15C52.8226 69.41 53.3926 69.54 53.9726 69.54C54.7726 69.54 55.5026 69.32 56.1626 68.88C56.8226 68.44 57.3626 67.71 57.7826 66.69C58.2026 65.65 58.4326 64.25 58.4726 62.49C57.9126 63.17 57.2526 63.71 56.4926 64.11C55.7326 64.51 55.0026 64.71 54.3026 64.71C52.6626 64.71 51.3226 64.23 50.2826 63.27C49.2626 62.29 48.7526 60.8 48.7526 58.8C48.7526 57.52 49.0226 56.42 49.5626 55.5C50.1226 54.56 50.8526 53.84 51.7526 53.34C52.6726 52.82 53.6726 52.56 54.7526 52.56C55.9926 52.56 57.1326 52.89 58.1726 53.55C59.2326 54.21 60.0726 55.23 60.6926 56.61C61.3326 57.97 61.6526 59.72 61.6526 61.86C61.6526 64.32 61.3026 66.33 60.6026 67.89C59.9026 69.43 58.9826 70.56 57.8426 71.28C56.7026 72 55.4726 72.36 54.1526 72.36ZM70.2534 72.36C68.7134 72.36 67.4134 72.1 66.3534 71.58C65.3134 71.04 64.4434 70.42 63.7434 69.72L65.3334 67.5C65.9134 68.04 66.5634 68.52 67.2834 68.94C68.0034 69.34 68.8434 69.54 69.8034 69.54C70.8634 69.54 71.7434 69.22 72.4434 68.58C73.1434 67.94 73.4934 67.04 73.4934 65.88C73.4934 64.74 73.1734 63.86 72.5334 63.24C71.8934 62.62 71.0434 62.31 69.9834 62.31C69.3634 62.31 68.8434 62.4 68.4234 62.58C68.0034 62.74 67.5034 63.01 66.9234 63.39L65.2734 62.34L65.8434 52.92H76.0434V55.83H68.8434L68.4534 60.45C68.8534 60.25 69.2434 60.1 69.6234 60C70.0234 59.88 70.4734 59.82 70.9734 59.82C72.0734 59.82 73.0734 60.03 73.9734 60.45C74.8734 60.87 75.5934 61.52 76.1334 62.4C76.6934 63.28 76.9734 64.41 76.9734 65.79C76.9734 67.17 76.6534 68.35 76.0134 69.33C75.3934 70.31 74.5734 71.06 73.5534 71.58C72.5334 72.1 71.4334 72.36 70.2534 72.36ZM86.0843 72.36C84.1043 72.36 82.5243 71.5 81.3443 69.78C80.1843 68.06 79.6043 65.59 79.6043 62.37C79.6043 59.15 80.1843 56.71 81.3443 55.05C82.5243 53.39 84.1043 52.56 86.0843 52.56C88.0643 52.56 89.6343 53.39 90.7943 55.05C91.9743 56.71 92.5643 59.15 92.5643 62.37C92.5643 65.59 91.9743 68.06 90.7943 69.78C89.6343 71.5 88.0643 72.36 86.0843 72.36ZM86.0843 69.66C86.7043 69.66 87.2543 69.43 87.7343 68.97C88.2143 68.49 88.5843 67.72 88.8443 66.66C89.1243 65.6 89.2643 64.17 89.2643 62.37C89.2643 60.57 89.1243 59.15 88.8443 58.11C88.5843 57.07 88.2143 56.34 87.7343 55.92C87.2543 55.48 86.7043 55.26 86.0843 55.26C85.4843 55.26 84.9443 55.48 84.4643 55.92C83.9843 56.34 83.6043 57.07 83.3243 58.11C83.0443 59.15 82.9043 60.57 82.9043 62.37C82.9043 64.17 83.0443 65.6 83.3243 66.66C83.6043 67.72 83.9843 68.49 84.4643 68.97C84.9443 69.43 85.4843 69.66 86.0843 69.66ZM97.9252 72.36C97.3052 72.36 96.7752 72.14 96.3352 71.7C95.8952 71.26 95.6752 70.7 95.6752 70.02C95.6752 69.34 95.8952 68.78 96.3352 68.34C96.7752 67.9 97.3052 67.68 97.9252 67.68C98.5652 67.68 99.0952 67.9 99.5152 68.34C99.9352 68.78 100.145 69.34 100.145 70.02C100.145 70.7 99.9352 71.26 99.5152 71.7C99.0952 72.14 98.5652 72.36 97.9252 72.36ZM109.277 72.36C107.737 72.36 106.437 72.1 105.377 71.58C104.337 71.04 103.467 70.42 102.767 69.72L104.357 67.5C104.937 68.04 105.587 68.52 106.307 68.94C107.027 69.34 107.867 69.54 108.827 69.54C109.887 69.54 110.767 69.22 111.467 68.58C112.167 67.94 112.517 67.04 112.517 65.88C112.517 64.74 112.197 63.86 111.557 63.24C110.917 62.62 110.067 62.31 109.007 62.31C108.387 62.31 107.867 62.4 107.447 62.58C107.027 62.74 106.527 63.01 105.947 63.39L104.297 62.34L104.867 52.92H115.067V55.83H107.867L107.477 60.45C107.877 60.25 108.267 60.1 108.647 60C109.047 59.88 109.497 59.82 109.997 59.82C111.097 59.82 112.097 60.03 112.997 60.45C113.897 60.87 114.617 61.52 115.157 62.4C115.717 63.28 115.997 64.41 115.997 65.79C115.997 67.17 115.677 68.35 115.037 69.33C114.417 70.31 113.597 71.06 112.577 71.58C111.557 72.1 110.457 72.36 109.277 72.36ZM125.108 72.36C123.128 72.36 121.548 71.5 120.368 69.78C119.208 68.06 118.628 65.59 118.628 62.37C118.628 59.15 119.208 56.71 120.368 55.05C121.548 53.39 123.128 52.56 125.108 52.56C127.088 52.56 128.658 53.39 129.818 55.05C130.998 56.71 131.588 59.15 131.588 62.37C131.588 65.59 130.998 68.06 129.818 69.78C128.658 71.5 127.088 72.36 125.108 72.36ZM125.108 69.66C125.728 69.66 126.278 69.43 126.758 68.97C127.238 68.49 127.608 67.72 127.868 66.66C128.148 65.6 128.288 64.17 128.288 62.37C128.288 60.57 128.148 59.15 127.868 58.11C127.608 57.07 127.238 56.34 126.758 55.92C126.278 55.48 125.728 55.26 125.108 55.26C124.508 55.26 123.968 55.48 123.488 55.92C123.008 56.34 122.628 57.07 122.348 58.11C122.068 59.15 121.928 60.57 121.928 62.37C121.928 64.17 122.068 65.6 122.348 66.66C122.628 67.72 123.008 68.49 123.488 68.97C123.968 69.43 124.508 69.66 125.108 69.66ZM147.034 72.36C145.714 72.36 144.434 72.11 143.194 71.61C141.974 71.11 140.894 70.4 139.954 69.48L141.994 67.11C142.694 67.77 143.494 68.31 144.394 68.73C145.294 69.13 146.194 69.33 147.094 69.33C148.214 69.33 149.064 69.1 149.644 68.64C150.224 68.18 150.514 67.57 150.514 66.81C150.514 65.99 150.224 65.4 149.644 65.04C149.084 64.68 148.364 64.31 147.484 63.93L144.784 62.76C144.144 62.48 143.514 62.12 142.894 61.68C142.294 61.24 141.794 60.68 141.394 60C141.014 59.32 140.824 58.5 140.824 57.54C140.824 56.5 141.104 55.57 141.664 54.75C142.244 53.91 143.024 53.25 144.004 52.77C145.004 52.27 146.144 52.02 147.424 52.02C148.564 52.02 149.664 52.25 150.724 52.71C151.784 53.15 152.694 53.75 153.454 54.51L151.684 56.73C151.064 56.21 150.404 55.8 149.704 55.5C149.024 55.2 148.264 55.05 147.424 55.05C146.504 55.05 145.754 55.26 145.174 55.68C144.614 56.08 144.334 56.64 144.334 57.36C144.334 57.86 144.474 58.28 144.754 58.62C145.054 58.94 145.444 59.22 145.924 59.46C146.404 59.68 146.914 59.9 147.454 60.12L150.124 61.23C151.284 61.73 152.234 62.39 152.974 63.21C153.714 64.01 154.084 65.12 154.084 66.54C154.084 67.6 153.804 68.57 153.244 69.45C152.684 70.33 151.874 71.04 150.814 71.58C149.774 72.1 148.514 72.36 147.034 72.36ZM157.652 72V52.38H169.472V55.32H161.132V60.33H168.182V63.27H161.132V69.06H169.772V72H157.652ZM173.795 72V52.38H177.275V61.29H177.365L184.355 52.38H188.225L182.195 60.03L189.245 72H185.405L180.095 62.76L177.275 66.27V72H173.795Z" fill="white"/>
</g>
</g>
<defs>
<filter id="filter0_b_46_349" x="-4" y="-4" width="308" height="168" filterUnits="userSpaceOnUse" color-interpolation-filters="sRGB">
<feFlood flood-opacity="0" result="BackgroundImageFix"/>
<feGaussianBlur in="BackgroundImageFix" stdDeviation="2"/>
<feComposite in2="SourceAlpha" operator="in" result="effect1_backgroundBlur_46_349"/>
<feBlend mode="normal" in="SourceGraphic" in2="effect1_backgroundBlur_46_349" result="shape"/>
</filter>
</defs>
</svg>
